# xmcd CD database file
#
# Track frame offsets:
#	150
#	17340
#	32595
#	51800
#	68725
#	89825
#	109635
#	134287
#	154200
#	173925
#
# Disc length: 2654 seconds
#
# Revision: 0
# Processed by: cddbd v1.5PL3 Copyright (c) Steve Scherf et al.
# Submitted via: CDex 1.50beta8
#
DISCID=7d0a5c0a
DTITLE=The Mods - Yum-Yum Gimme Some
DYEAR=1987
DGENRE=Rock
TTITLE0=ジャマをするな
TTITLE1=Too Hot
TTITLE2=Harlem Queen
TTITLE3=Hard Luck
TTITLE4=Bunny Girl
TTITLE5=泥棒列車
TTITLE6=Kick it Out
TTITLE7=Everything's Gonna be Alright
TTITLE8=Instant Happiness
TTITLE9=Strange Day
EXTD=YEAR: 1987
EXTT0=
EXTT1=
EXTT2=
EXTT3=
EXTT4=
EXTT5=
EXTT6=
EXTT7=
EXTT8=
EXTT9=
PLAYORDER=
